<svg width="471" height="621" viewBox="0 0 471 621" fill="none" xmlns="http://www.w3.org/2000/svg">
<path d="M0 235.5C0 202.524 0 186.037 1.94032 172.209C14.3433 83.8168 83.8168 14.3433 172.209 1.94032C186.037 0 202.524 0 235.5 0C268.476 0 284.963 0 298.791 1.94032C387.183 14.3433 456.657 83.8168 469.06 172.209C471 186.037 471 202.524 471 235.5V589C471 600.201 471 605.802 468.82 610.08C466.903 613.843 463.843 616.903 460.08 618.82C455.802 621 450.201 621 439 621H310.5C207.442 621 155.913 621 115.912 602.464C72.9495 582.556 38.4443 548.05 18.5361 505.088C0 465.087 0 413.558 0 310.5V235.5Z" fill="#985EFF"/>
</svg>
