<svg width="31" height="30" viewBox="0 0 31 30" fill="none" xmlns="http://www.w3.org/2000/svg">
<rect x="-0.5" y="0.5" width="28.9998" height="29" rx="1.5" transform="matrix(-1 0 0 1 29.0859 0)" stroke="#CED2D6"/>
<path d="M19.0862 20C19.2839 20 19.4772 19.9413 19.6416 19.8314C19.806 19.7215 19.9342 19.5654 20.0098 19.3827C20.0855 19.2 20.1053 18.9989 20.0667 18.805C20.0282 18.611 19.933 18.4329 19.7932 18.293L16.5001 15L19.7932 11.707C19.9753 11.5184 20.0761 11.2658 20.0738 11.0036C20.0715 10.7414 19.9664 10.4906 19.781 10.3052C19.5956 10.1198 19.3447 10.0146 19.0826 10.0123C18.8204 10.01 18.5678 10.1108 18.3792 10.293L14.3792 14.293C14.1917 14.4805 14.0864 14.7348 14.0864 15C14.0864 15.2652 14.1917 15.5195 14.3792 15.707L18.3792 19.707C18.4719 19.8 18.5821 19.8738 18.7034 19.924C18.8247 19.9743 18.9548 20.0001 19.0862 20ZM11.0862 20C11.3514 20 11.6057 19.8946 11.7933 19.7071C11.9808 19.5196 12.0862 19.2652 12.0862 19V11C12.0862 10.7348 11.9808 10.4804 11.7933 10.2929C11.6057 10.1054 11.3514 10 11.0862 10C10.8209 10 10.5666 10.1054 10.379 10.2929C10.1915 10.4804 10.0862 10.7348 10.0862 11V19C10.0862 19.2652 10.1915 19.5196 10.379 19.7071C10.5666 19.8946 10.8209 20 11.0862 20Z" fill="#CED2D6"/>
</svg>
