<svg width="60" height="60" viewBox="0 0 60 60" fill="none" xmlns="http://www.w3.org/2000/svg">
<circle cx="30" cy="30" r="30" fill="#985EFF"/>
<path d="M20 22.5C20.663 22.5 21.2989 22.2366 21.7678 21.7678C22.2366 21.2989 22.5 20.663 22.5 20C22.5 19.337 22.2366 18.7011 21.7678 18.2322C21.2989 17.7634 20.663 17.5 20 17.5C19.337 17.5 18.7011 17.7634 18.2322 18.2322C17.7634 18.7011 17.5 19.337 17.5 20C17.5 20.663 17.7634 21.2989 18.2322 21.7678C18.7011 22.2366 19.337 22.5 20 22.5ZM21.25 41.25C22.2446 41.25 23.1984 40.8549 23.9017 40.1517C24.6049 39.4484 25 38.4946 25 37.5C25 36.5054 24.6049 35.5516 23.9017 34.8483C23.1984 34.1451 22.2446 33.75 21.25 33.75C20.2554 33.75 19.3016 34.1451 18.5983 34.8483C17.8951 35.5516 17.5 36.5054 17.5 37.5C17.5 38.4946 17.8951 39.4484 18.5983 40.1517C19.3016 40.8549 20.2554 41.25 21.25 41.25ZM38.75 42.5C39.7446 42.5 40.6984 42.1049 41.4017 41.4017C42.1049 40.6984 42.5 39.7446 42.5 38.75C42.5 37.7554 42.1049 36.8016 41.4017 36.0983C40.6984 35.3951 39.7446 35 38.75 35C37.7554 35 36.8016 35.3951 36.0983 36.0983C35.3951 36.8016 35 37.7554 35 38.75C35 39.7446 35.3951 40.6984 36.0983 41.4017C36.8016 42.1049 37.7554 42.5 38.75 42.5ZM28.75 32.5C30.0761 32.5 31.3479 31.9732 32.2855 31.0355C33.2232 30.0979 33.75 28.8261 33.75 27.5C33.75 26.1739 33.2232 24.9021 32.2855 23.9645C31.3479 23.0268 30.0761 22.5 28.75 22.5C27.4239 22.5 26.1521 23.0268 25.2145 23.9645C24.2768 24.9021 23.75 26.1739 23.75 27.5C23.75 28.8261 24.2768 30.0979 25.2145 31.0355C26.1521 31.9732 27.4239 32.5 28.75 32.5ZM36.25 22.5C36.913 22.5 37.5489 22.2366 38.0178 21.7678C38.4866 21.2989 38.75 20.663 38.75 20C38.75 19.337 38.4866 18.7011 38.0178 18.2322C37.5489 17.7634 36.913 17.5 36.25 17.5C35.587 17.5 34.9511 17.7634 34.4822 18.2322C34.0134 18.7011 33.75 19.337 33.75 20C33.75 20.663 34.0134 21.2989 34.4822 21.7678C34.9511 22.2366 35.587 22.5 36.25 22.5Z" stroke="white" stroke-width="3" stroke-linecap="round" stroke-linejoin="round"/>
<path d="M21.875 21.875L24.375 24.375M33.75 22.5L32.5 23.75M36.25 35.9375L32.5 31.25M23.75 34.375L26.25 31.875" stroke="white" stroke-width="3" stroke-linecap="round" stroke-linejoin="round"/>
</svg>
