<svg width="17" height="16" viewBox="0 0 17 16" fill="none" xmlns="http://www.w3.org/2000/svg">
<g clip-path="url(#clip0_311_3561)">
<path d="M6.07338 0.526248C4.47473 1.08083 3.09606 2.13346 2.13987 3.5295C1.18367 4.92555 0.700366 6.59143 0.76093 8.28246C0.821493 9.97348 1.42274 11.6005 2.47635 12.9246C3.52996 14.2487 4.9804 15.1999 6.61463 15.6388C7.93953 15.9806 9.32764 15.9956 10.6596 15.6825C11.8663 15.4115 12.9819 14.8317 13.8971 14C14.8497 13.1079 15.5412 11.9731 15.8971 10.7175C16.2839 9.35206 16.3527 7.91617 16.0984 6.52H8.65838V9.60625H12.9671C12.881 10.0985 12.6965 10.5683 12.4246 10.9875C12.1527 11.4068 11.7989 11.7669 11.3846 12.0462C10.8585 12.3944 10.2654 12.6286 9.64338 12.7338C9.01956 12.8498 8.37969 12.8498 7.75588 12.7338C7.12357 12.6032 6.52543 12.3422 5.99963 11.9675C5.15481 11.3695 4.52047 10.5199 4.18713 9.54C3.84824 8.54173 3.84824 7.45952 4.18713 6.46125C4.42441 5.76152 4.81667 5.12442 5.33463 4.5975C5.92737 3.98343 6.67779 3.54449 7.50357 3.32884C8.32935 3.11319 9.19858 3.12916 10.0159 3.375C10.6544 3.5709 11.2382 3.91335 11.7209 4.375C12.2067 3.89166 12.6917 3.40708 13.1759 2.92125C13.4259 2.66 13.6984 2.41125 13.9446 2.14375C13.2078 1.45815 12.3429 0.924628 11.3996 0.573748C9.68176 -0.0500151 7.8021 -0.0667781 6.07338 0.526248Z" fill="white"/>
<path d="M6.07348 0.526245C7.80206 -0.067184 9.68171 -0.0508623 11.3997 0.572495C12.3432 0.925759 13.2077 1.46184 13.9435 2.14999C13.6935 2.41749 13.4297 2.66749 13.1747 2.92749C12.6897 3.41166 12.2051 3.89416 11.721 4.37499C11.2383 3.91334 10.6545 3.5709 10.016 3.37499C9.19894 3.1283 8.32975 3.1114 7.50375 3.32617C6.67775 3.54094 5.92687 3.97907 5.33348 4.59249C4.81552 5.11941 4.42326 5.75652 4.18598 6.45624L1.59473 4.44999C2.52224 2.6107 4.12816 1.20377 6.07348 0.526245Z" fill="#E33629"/>
<path d="M0.907926 6.43757C1.0471 5.74729 1.27833 5.07881 1.59543 4.45007L4.18668 6.46132C3.84779 7.4596 3.84779 8.5418 4.18668 9.54007C3.32334 10.2067 2.45959 10.8767 1.59543 11.5501C0.801864 9.97047 0.559842 8.1707 0.907926 6.43757Z" fill="#F8BD00"/>
<path d="M8.65876 6.51868H16.0988C16.3531 7.91485 16.2843 9.35074 15.8975 10.7162C15.5416 11.9718 14.8501 13.1066 13.8975 13.9987C13.0613 13.3462 12.2213 12.6987 11.385 12.0462C11.7996 11.7665 12.1535 11.406 12.4254 10.9863C12.6973 10.5666 12.8817 10.0964 12.9675 9.60368H8.65876C8.65751 8.57618 8.65876 7.54743 8.65876 6.51868Z" fill="#587DBD"/>
<path d="M1.59375 11.55C2.45792 10.8834 3.32167 10.2134 4.185 9.54004C4.51901 10.5203 5.15426 11.3699 6 11.9675C6.52744 12.3405 7.12687 12.5993 7.76 12.7275C8.38382 12.8436 9.02368 12.8436 9.6475 12.7275C10.2695 12.6224 10.8627 12.3882 11.3888 12.04C12.225 12.6925 13.065 13.34 13.9013 13.9925C12.9861 14.8247 11.8705 15.4049 10.6638 15.6763C9.33176 15.9894 7.94366 15.9744 6.61875 15.6325C5.57088 15.3528 4.59209 14.8595 3.74375 14.1838C2.84591 13.4708 2.11254 12.5724 1.59375 11.55Z" fill="#319F43"/>
</g>
<defs>
<clipPath id="clip0_311_3561">
<rect width="16" height="16" fill="white" transform="translate(0.5)"/>
</clipPath>
</defs>
</svg>
