<svg width="32" height="32" viewBox="0 0 32 32" fill="none" xmlns="http://www.w3.org/2000/svg">
<path d="M9.37399 6.59998L4.66732 11.3333C0.227318 15.7466 0.227318 22.92 4.66732 27.3333C9.10732 31.7466 16.254 31.7733 20.6673 27.3333L28.6673 19.3333C30.0007 18.04 30.0007 15.92 28.6673 14.6133C28.534 14.4533 28.3607 14.3066 28.174 14.1866L28.6673 13.6666C30.0007 12.3733 30.0007 10.2533 28.6673 8.94665C28.4807 8.73331 28.2273 8.54665 28.0007 8.39998C28.5073 7.17331 28.2807 5.70665 27.2807 4.70665C26.1207 3.54665 24.3207 3.42665 23.014 4.33331C22.7427 3.91542 22.3817 3.56318 21.9573 3.30216C21.5329 3.04114 21.0557 2.8779 20.5604 2.82428C20.065 2.77066 19.5639 2.82801 19.0935 2.99216C18.6231 3.15631 18.1951 3.42316 17.8407 3.77331L14.494 7.11998C14.374 6.93331 14.2273 6.75998 14.0673 6.59998C13.4381 5.99066 12.5965 5.64998 11.7207 5.64998C10.8448 5.64998 10.0032 5.99066 9.37399 6.59998ZM11.254 8.49331C11.5207 8.22665 11.934 8.22665 12.2007 8.49331C12.4673 8.75998 12.4673 9.17331 12.2007 9.43998L7.96065 13.68C8.70972 14.43 9.13046 15.4466 9.13046 16.5066C9.13046 17.5667 8.70972 18.5833 7.96065 19.3333L9.84065 21.2133C10.7571 20.296 11.3864 19.1316 11.6516 17.8624C11.9168 16.5931 11.8064 15.2741 11.334 14.0666L19.734 5.66665C20.0007 5.39998 20.414 5.39998 20.6673 5.66665C20.9207 5.93331 20.9473 6.34665 20.6673 6.61331L14.5473 12.7466L16.4273 14.6266L24.4407 6.61331C24.7073 6.34665 25.1207 6.34665 25.3873 6.61331C25.654 6.87998 25.654 7.29331 25.3873 7.55998L17.374 15.5733L19.254 17.4533L25.854 10.8533C26.1207 10.5866 26.534 10.5866 26.8007 10.8533C27.0673 11.12 27.0673 11.5333 26.8007 11.8L19.254 19.3333L21.134 21.2266L25.854 16.5066C26.1207 16.24 26.534 16.24 26.8007 16.5066C27.0673 16.7733 27.0673 17.1866 26.8007 17.4533L18.8007 25.4666C15.414 28.8533 9.93398 28.8533 6.54732 25.4666C3.16065 22.08 3.16065 16.6 6.54732 13.2133L11.254 8.49331ZM30.6673 22.6666C30.6673 27.08 27.0807 30.6666 22.6673 30.6666V28.6666C26.0007 28.6666 28.6673 26 28.6673 22.6666H30.6673ZM1.33398 9.33331C1.33398 4.91998 4.92065 1.33331 9.33398 1.33331V3.33331C6.00065 3.33331 3.33398 5.99998 3.33398 9.33331H1.33398Z" fill="#30009C"/>
</svg>
