<svg width="31" height="30" viewBox="0 0 31 30" fill="none" xmlns="http://www.w3.org/2000/svg">
<rect x="0.585938" y="0.5" width="28.9998" height="29" rx="1.5" stroke="#CED2D6"/>
<path d="M11.0857 20C10.888 20 10.6947 19.9413 10.5303 19.8314C10.3659 19.7215 10.2377 19.5654 10.162 19.3827C10.0864 19.2 10.0666 18.9989 10.1051 18.805C10.1437 18.611 10.2389 18.4329 10.3787 18.293L13.6717 15L10.3787 11.707C10.1966 11.5184 10.0958 11.2658 10.0981 11.0036C10.1003 10.7414 10.2055 10.4906 10.3909 10.3052C10.5763 10.1198 10.8271 10.0146 11.0893 10.0123C11.3515 10.01 11.6041 10.1108 11.7927 10.293L15.7927 14.293C15.9802 14.4805 16.0855 14.7348 16.0855 15C16.0855 15.2652 15.9802 15.5195 15.7927 15.707L11.7927 19.707C11.7 19.8 11.5898 19.8738 11.4685 19.924C11.3471 19.9743 11.2171 20.0001 11.0857 20ZM19.0857 20C18.8205 20 18.5662 19.8946 18.3786 19.7071C18.1911 19.5196 18.0857 19.2652 18.0857 19V11C18.0857 10.7348 18.1911 10.4804 18.3786 10.2929C18.5662 10.1054 18.8205 10 19.0857 10C19.3509 10 19.6053 10.1054 19.7928 10.2929C19.9804 10.4804 20.0857 10.7348 20.0857 11V19C20.0857 19.2652 19.9804 19.5196 19.7928 19.7071C19.6053 19.8946 19.3509 20 19.0857 20Z" fill="#596066"/>
</svg>
