<svg width="60" height="60" viewBox="0 0 60 60" fill="none" xmlns="http://www.w3.org/2000/svg">
<circle cx="30" cy="30" r="30" fill="#985EFF"/>
<path d="M38.75 22.5H36.25C36.25 19 33.5 16.25 30 16.25C26.5 16.25 23.75 19 23.75 22.5H21.25C19.875 22.5 18.75 23.625 18.75 25V40C18.75 41.375 19.875 42.5 21.25 42.5H38.75C40.125 42.5 41.25 41.375 41.25 40V25C41.25 23.625 40.125 22.5 38.75 22.5ZM30 18.75C32.125 18.75 33.75 20.375 33.75 22.5H26.25C26.25 20.375 27.875 18.75 30 18.75ZM38.75 40H21.25V25H38.75V40ZM30 30C27.875 30 26.25 28.375 26.25 26.25H23.75C23.75 29.75 26.5 32.5 30 32.5C33.5 32.5 36.25 29.75 36.25 26.25H33.75C33.75 28.375 32.125 30 30 30Z" fill="white"/>
</svg>
