<svg width="96" height="88" viewBox="0 0 96 88" fill="none" xmlns="http://www.w3.org/2000/svg">
<g filter="url(#filter0_d_780_11536)">
<rect x="28" y="18" width="40" height="40" rx="20" fill="white" shape-rendering="crispEdges"/>
<path d="M55.9009 38.6599C55.7406 38.4774 55.6521 38.2428 55.6521 37.9999C55.6521 37.757 55.7406 37.5224 55.9009 37.3399L57.1809 35.8999C57.3219 35.7426 57.4095 35.5446 57.4311 35.3344C57.4526 35.1242 57.407 34.9126 57.3009 34.7299L55.3009 31.2699C55.1958 31.0874 55.0358 30.9428 54.8436 30.8566C54.6515 30.7704 54.437 30.7471 54.2309 30.7899L52.3509 31.1699C52.1117 31.2193 51.8626 31.1795 51.6508 31.0579C51.4389 30.9363 51.2789 30.7414 51.2009 30.5099L50.5909 28.6799C50.5238 28.4813 50.396 28.3088 50.2255 28.1867C50.055 28.0647 49.8505 27.9994 49.6409 27.9999H45.6409C45.4228 27.9885 45.207 28.0488 45.0264 28.1716C44.8459 28.2944 44.7105 28.4729 44.6409 28.6799L44.0809 30.5099C44.0029 30.7414 43.8428 30.9363 43.631 31.0579C43.4191 31.1795 43.1701 31.2193 42.9309 31.1699L41.0009 30.7899C40.8054 30.7623 40.6062 30.7931 40.4282 30.8785C40.2503 30.964 40.1016 31.1001 40.0009 31.2699L38.0009 34.7299C37.892 34.9105 37.8431 35.121 37.8611 35.3311C37.879 35.5413 37.963 35.7403 38.1009 35.8999L39.3709 37.3399C39.5312 37.5224 39.6196 37.757 39.6196 37.9999C39.6196 38.2428 39.5312 38.4774 39.3709 38.6599L38.1009 40.0999C37.963 40.2595 37.879 40.4585 37.8611 40.6687C37.8431 40.8788 37.892 41.0892 38.0009 41.2699L40.0009 44.7299C40.106 44.9124 40.266 45.057 40.4581 45.1432C40.6503 45.2294 40.8647 45.2527 41.0709 45.2099L42.9509 44.8299C43.1901 44.7805 43.4391 44.8203 43.651 44.9419C43.8628 45.0635 44.0229 45.2584 44.1009 45.4899L44.7109 47.3199C44.7805 47.5269 44.9159 47.7054 45.0964 47.8282C45.277 47.951 45.4928 48.0113 45.7109 47.9999H49.7109C49.9205 48.0004 50.125 47.9351 50.2955 47.8131C50.466 47.691 50.5938 47.5185 50.6609 47.3199L51.2709 45.4899C51.3489 45.2584 51.5089 45.0635 51.7208 44.9419C51.9326 44.8203 52.1817 44.7805 52.4209 44.8299L54.3009 45.2099C54.507 45.2527 54.7215 45.2294 54.9136 45.1432C55.1058 45.057 55.2658 44.9124 55.3709 44.7299L57.3709 41.2699C57.477 41.0872 57.5226 40.8756 57.5011 40.6654C57.4795 40.4552 57.3919 40.2572 57.2509 40.0999L55.9009 38.6599ZM54.4109 39.9999L55.2109 40.8999L53.9309 43.1199L52.7509 42.8799C52.0307 42.7327 51.2814 42.855 50.6455 43.2237C50.0095 43.5924 49.531 44.1817 49.3009 44.8799L48.9209 45.9999H46.3609L46.0009 44.8599C45.7707 44.1617 45.2923 43.5724 44.6563 43.2037C44.0203 42.835 43.2711 42.7127 42.5509 42.8599L41.3709 43.0999L40.0709 40.8899L40.8709 39.9899C41.3628 39.4399 41.6348 38.7278 41.6348 37.9899C41.6348 37.252 41.3628 36.5399 40.8709 35.9899L40.0709 35.0899L41.3509 32.8899L42.5309 33.1299C43.2511 33.2771 44.0003 33.1548 44.6363 32.7861C45.2723 32.4174 45.7507 31.8281 45.9809 31.1299L46.3609 29.9999H48.9209L49.3009 31.1399C49.531 31.8381 50.0095 32.4274 50.6455 32.7961C51.2814 33.1648 52.0307 33.2871 52.7509 33.1399L53.9309 32.8999L55.2109 35.1199L54.4109 36.0199C53.9244 36.5687 53.6558 37.2766 53.6558 38.0099C53.6558 38.7432 53.9244 39.4511 54.4109 39.9999ZM47.6409 33.9999C46.8497 33.9999 46.0764 34.2345 45.4186 34.674C44.7608 35.1135 44.2481 35.7383 43.9454 36.4692C43.6426 37.2001 43.5634 38.0043 43.7177 38.7803C43.8721 39.5562 44.253 40.2689 44.8124 40.8283C45.3719 41.3877 46.0846 41.7687 46.8605 41.923C47.6364 42.0774 48.4407 41.9982 49.1716 41.6954C49.9025 41.3927 50.5272 40.88 50.9668 40.2222C51.4063 39.5644 51.6409 38.791 51.6409 37.9999C51.6409 36.939 51.2194 35.9216 50.4693 35.1715C49.7192 34.4213 48.7017 33.9999 47.6409 33.9999ZM47.6409 39.9999C47.2453 39.9999 46.8586 39.8826 46.5297 39.6628C46.2008 39.4431 45.9445 39.1307 45.7931 38.7653C45.6417 38.3998 45.6021 37.9977 45.6793 37.6097C45.7565 37.2218 45.947 36.8654 46.2267 36.5857C46.5064 36.306 46.8627 36.1155 47.2507 36.0383C47.6387 35.9612 48.0408 36.0008 48.4062 36.1521C48.7717 36.3035 49.084 36.5599 49.3038 36.8888C49.5236 37.2177 49.6409 37.6043 49.6409 37.9999C49.6409 38.5303 49.4302 39.039 49.0551 39.4141C48.68 39.7892 48.1713 39.9999 47.6409 39.9999Z" fill="#30009C"/>
</g>
<defs>
<filter id="filter0_d_780_11536" x="0" y="0" width="96" height="96" filterUnits="userSpaceOnUse" color-interpolation-filters="sRGB">
<feFlood flood-opacity="0" result="BackgroundImageFix"/>
<feColorMatrix in="SourceAlpha" type="matrix" values="0 0 0 0 0 0 0 0 0 0 0 0 0 0 0 0 0 0 127 0" result="hardAlpha"/>
<feMorphology radius="12" operator="dilate" in="SourceAlpha" result="effect1_dropShadow_780_11536"/>
<feOffset dy="10"/>
<feGaussianBlur stdDeviation="8"/>
<feComposite in2="hardAlpha" operator="out"/>
<feColorMatrix type="matrix" values="0 0 0 0 0.698094 0 0 0 0 0.81276 0 0 0 0 0.837931 0 0 0 0.2 0"/>
<feBlend mode="normal" in2="BackgroundImageFix" result="effect1_dropShadow_780_11536"/>
<feBlend mode="normal" in="SourceGraphic" in2="effect1_dropShadow_780_11536" result="shape"/>
</filter>
</defs>
</svg>
