<svg width="75" height="15" viewBox="0 0 75 15" fill="none" xmlns="http://www.w3.org/2000/svg">
<path d="M13.3024 5.17237L9.58318 4.63184L7.92059 1.26124C7.87517 1.16895 7.80047 1.09424 7.70818 1.04883C7.47674 0.934576 7.19549 1.02979 7.07976 1.26124L5.41717 4.63184L1.69793 5.17237C1.59539 5.18702 1.50164 5.23536 1.42986 5.3086C1.34309 5.39779 1.29527 5.51778 1.29692 5.6422C1.29856 5.76663 1.34954 5.88531 1.43865 5.97217L4.12957 8.59571L3.49383 12.3003C3.47892 12.3865 3.48845 12.4751 3.52135 12.5561C3.55425 12.6372 3.6092 12.7074 3.67996 12.7588C3.75072 12.8102 3.83447 12.8407 3.92171 12.8469C4.00894 12.8531 4.09617 12.8348 4.17351 12.7939L7.50017 11.0449L10.8268 12.7939C10.9177 12.8423 11.0231 12.8584 11.1242 12.8408C11.3791 12.7969 11.5505 12.5552 11.5065 12.3003L10.8708 8.59571L13.5617 5.97217C13.6349 5.90039 13.6833 5.80664 13.6979 5.70411C13.7375 5.44776 13.5588 5.21045 13.3024 5.17237Z" fill="#FFC700"/>
<path d="M28.3024 5.17237L24.5832 4.63184L22.9206 1.26124C22.8752 1.16895 22.8005 1.09424 22.7082 1.04883C22.4767 0.934576 22.1955 1.02979 22.0798 1.26124L20.4172 4.63184L16.6979 5.17237C16.5954 5.18702 16.5016 5.23536 16.4299 5.3086C16.3431 5.39779 16.2953 5.51778 16.2969 5.6422C16.2986 5.76663 16.3495 5.88531 16.4386 5.97217L19.1296 8.59571L18.4938 12.3003C18.4789 12.3865 18.4885 12.4751 18.5214 12.5561C18.5543 12.6372 18.6092 12.7074 18.68 12.7588C18.7507 12.8102 18.8345 12.8407 18.9217 12.8469C19.0089 12.8531 19.0962 12.8348 19.1735 12.7939L22.5002 11.0449L25.8268 12.7939C25.9177 12.8423 26.0231 12.8584 26.1242 12.8408C26.3791 12.7969 26.5505 12.5552 26.5065 12.3003L25.8708 8.59571L28.5617 5.97217C28.6349 5.90039 28.6833 5.80664 28.6979 5.70411C28.7375 5.44776 28.5588 5.21045 28.3024 5.17237Z" fill="#FFC700"/>
<path d="M43.3024 5.17237L39.5832 4.63184L37.9206 1.26124C37.8752 1.16895 37.8005 1.09424 37.7082 1.04883C37.4767 0.934576 37.1955 1.02979 37.0798 1.26124L35.4172 4.63184L31.6979 5.17237C31.5954 5.18702 31.5016 5.23536 31.4299 5.3086C31.3431 5.39779 31.2953 5.51778 31.2969 5.6422C31.2986 5.76663 31.3495 5.88531 31.4386 5.97217L34.1296 8.59571L33.4938 12.3003C33.4789 12.3865 33.4885 12.4751 33.5214 12.5561C33.5543 12.6372 33.6092 12.7074 33.68 12.7588C33.7507 12.8102 33.8345 12.8407 33.9217 12.8469C34.0089 12.8531 34.0962 12.8348 34.1735 12.7939L37.5002 11.0449L40.8268 12.7939C40.9177 12.8423 41.0231 12.8584 41.1242 12.8408C41.3791 12.7969 41.5505 12.5552 41.5065 12.3003L40.8708 8.59571L43.5617 5.97217C43.6349 5.90039 43.6833 5.80664 43.6979 5.70411C43.7375 5.44776 43.5588 5.21045 43.3024 5.17237Z" fill="#FFC700"/>
<path d="M58.3024 5.17237L54.5832 4.63184L52.9206 1.26124C52.8752 1.16895 52.8005 1.09424 52.7082 1.04883C52.4767 0.934576 52.1955 1.02979 52.0798 1.26124L50.4172 4.63184L46.6979 5.17237C46.5954 5.18702 46.5016 5.23536 46.4299 5.3086C46.3431 5.39779 46.2953 5.51778 46.2969 5.6422C46.2986 5.76663 46.3495 5.88531 46.4386 5.97217L49.1296 8.59571L48.4938 12.3003C48.4789 12.3865 48.4885 12.4751 48.5214 12.5561C48.5543 12.6372 48.6092 12.7074 48.68 12.7588C48.7507 12.8102 48.8345 12.8407 48.9217 12.8469C49.0089 12.8531 49.0962 12.8348 49.1735 12.7939L52.5002 11.0449L55.8268 12.7939C55.9177 12.8423 56.0231 12.8584 56.1242 12.8408C56.3791 12.7969 56.5505 12.5552 56.5065 12.3003L55.8708 8.59571L58.5617 5.97217C58.6349 5.90039 58.6833 5.80664 58.6979 5.70411C58.7375 5.44776 58.5588 5.21045 58.3024 5.17237Z" fill="#FFC700"/>
<path d="M73.3024 5.17237L69.5832 4.63184L67.9206 1.26124C67.8752 1.16895 67.8005 1.09424 67.7082 1.04883C67.4767 0.934576 67.1955 1.02979 67.0798 1.26124L65.4172 4.63184L61.6979 5.17237C61.5954 5.18702 61.5016 5.23536 61.4299 5.3086C61.3431 5.39779 61.2953 5.51778 61.2969 5.6422C61.2986 5.76663 61.3495 5.88531 61.4386 5.97217L64.1296 8.59571L63.4938 12.3003C63.4789 12.3865 63.4885 12.4751 63.5214 12.5561C63.5543 12.6372 63.6092 12.7074 63.68 12.7588C63.7507 12.8102 63.8345 12.8407 63.9217 12.8469C64.0089 12.8531 64.0962 12.8348 64.1735 12.7939L67.5002 11.0449L70.8268 12.7939C70.9177 12.8423 71.0231 12.8584 71.1242 12.8408C71.3791 12.7969 71.5505 12.5552 71.5065 12.3003L70.8708 8.59571L73.5617 5.97217C73.6349 5.90039 73.6833 5.80664 73.6979 5.70411C73.7375 5.44776 73.5588 5.21045 73.3024 5.17237Z" fill="#FFC700"/>
</svg>
